<?xml version="1.0" encoding="UTF-8" standalone="no"?> <svg width="24" height="24" viewBox="0 0 24 24" fill="none" xmlns="http://www.w3.org/2000/svg">
<path fill-rule="evenodd" clip-rule="evenodd" d="M20.7928 3.2071C20.5992 3.01351 20.2891 3.00204 20.0817 3.1808L9.24116 12.5261C9.70968 12.7637 10.1481 13.0771 10.5355 13.4645C10.9254 13.8544 11.2376 14.2932 11.4719 14.761L20.8191 3.9182C20.9979 3.71083 20.9864 3.40069 20.7928 3.2071ZM11.9952 17.217L22.334 5.22407C23.1965 4.22352 23.1412 2.727 22.207 1.79289C21.2729 0.858781 19.7764 0.80343 18.7759 1.66598L6.81641 11.9759C5.5807 12.0067 4.34704 12.4976 3.4335 13.4968C2.39796 14.6293 2.33514 15.9857 2.28711 17.0227C2.28302 17.111 2.27904 17.197 2.27457 17.2804C2.21464 18.3984 2.10121 19.3583 1.24483 20.3441C0.900476 20.7405 0.921361 21.3358 1.29265 21.7071C2.37589 22.7903 4.09173 23.1068 5.71767 22.9002C7.38036 22.689 9.15647 21.9145 10.5355 20.5355C11.4565 19.6145 11.943 18.4221 11.9952 17.217ZM7.12139 13.9797C6.29076 13.9298 5.48204 14.2202 4.90952 14.8464C4.37605 15.4298 4.3413 16.0817 4.27704 17.2875C4.27528 17.3204 4.27351 17.3537 4.2717 17.3874C4.21985 18.3548 4.1226 19.5292 3.41973 20.7326C3.94288 20.9335 4.64238 21.0208 5.46557 20.9162C6.72118 20.7566 8.07832 20.1642 9.12126 19.1213C9.73691 18.5057 10.0291 17.6908 9.99765 16.8824C9.96928 16.1531 9.67757 15.435 9.12126 14.8787C8.57175 14.3292 7.84943 14.0235 7.12139 13.9797Z" fill="#293644"/>
</svg>
