<?xml version="1.0" encoding="UTF-8" standalone="no"?> <svg width="24" height="24" viewBox="0 0 24 24" fill="none" xmlns="http://www.w3.org/2000/svg">
<path fill-rule="evenodd" clip-rule="evenodd" d="M12.4789 2.4003C12.1804 2.2375 11.8197 2.2375 11.5212 2.4003L3.08838 7.00002L11.5212 11.5997C11.8197 11.7625 12.1804 11.7625 12.4789 11.5997L20.9117 7.00002L12.4789 2.4003ZM10.5635 0.644511C11.4589 0.156093 12.5412 0.156094 13.4366 0.644512L21.8694 5.24423C23.2592 6.00227 23.2592 7.99778 21.8694 8.75581L20.505 9.50002L21.8694 10.2442C23.2592 11.0023 23.2592 12.9978 21.8694 13.7558L20.505 14.5L21.8694 15.2442C23.2592 16.0023 23.2592 17.9978 21.8694 18.7558L13.4366 23.3555C12.5412 23.844 11.4589 23.844 10.5635 23.3555L2.13067 18.7558C0.740946 17.9978 0.740948 16.0023 2.13067 15.2442L3.49506 14.5L2.13067 13.7558C0.740946 12.9978 0.740948 11.0023 2.13067 10.2442L3.49506 9.50002L2.13067 8.75581C0.740946 7.99778 0.740948 6.00226 2.13067 5.24423L10.5635 0.644511ZM5.58339 10.6391L3.08838 12L11.5212 16.5997C11.8197 16.7626 12.1804 16.7626 12.4789 16.5997L20.9117 12L18.4167 10.6391L13.4366 13.3555C12.5412 13.844 11.4589 13.844 10.5635 13.3555L5.58339 10.6391ZM5.58339 15.6391L3.08838 17L11.5212 21.5997C11.8197 21.7626 12.1804 21.7626 12.4789 21.5997L20.9117 17L18.4167 15.6391L13.4366 18.3555C12.5412 18.844 11.4589 18.844 10.5635 18.3555L5.58339 15.6391Z" fill="#293644"/>
</svg>
