<?xml version="1.0" encoding="UTF-8" standalone="no"?> <svg width="512" height="512" viewBox="0 0 512 512" fill="none" xmlns="http://www.w3.org/2000/svg">
<path fill-rule="evenodd" clip-rule="evenodd" d="M272 48C272 39.1634 264.837 32 256 32C247.163 32 240 39.1634 240 48V240H48C39.1634 240 32 247.163 32 256C32 264.837 39.1634 272 48 272H240V464C240 472.837 247.163 480 256 480C264.837 480 272 472.837 272 464V272H464C472.837 272 480 264.837 480 256C480 247.163 472.837 240 464 240H272V48Z" fill="black"/>
</svg>
